RedHatText-Regular.ufo
<glyph name="exclam" format="2">
  <advance width="220"/>
  <unicode hex="0021"/>
  <outline>
    <contour>
      <point x="81" y="205" type="line"/>
      <point x="138" y="205" type="line"/>
      <point x="147" y="717" type="line"/>
      <point x="72" y="717" type="line"/>
    </contour>
    <contour>
      <point x="110" y="-8" type="curve" smooth="yes"/>
      <point x="138" y="-8"/>
      <point x="162" y="15"/>
      <point x="162" y="45" type="curve" smooth="yes"/>
      <point x="162" y="75"/>
      <point x="138" y="98"/>
      <point x="110" y="98" type="curve" smooth="yes"/>
      <point x="81" y="98"/>
      <point x="57" y="75"/>
      <point x="57" y="45" type="curve" smooth="yes"/>
      <point x="57" y="15"/>
      <point x="81" y="-8"/>
    </contour>
  </outline>
</glyph>
<glyph name="numbersign" format="2">
  <advance width="689"/>
  <unicode hex="0023"/>
  <outline>
    <contour>
      <point x="65" y="0" type="line"/>
      <point x="131" y="0" type="line"/>
      <point x="206" y="219" type="line"/>
      <point x="393" y="219" type="line"/>
      <point x="318" y="0" type="line"/>
      <point x="384" y="0" type="line"/>
      <point x="459" y="219" type="line"/>
      <point x="597" y="219" type="line"/>
      <point x="597" y="277" type="line"/>
      <point x="479" y="277" type="line"/>
      <point x="529" y="423" type="line"/>
      <point x="645" y="423" type="line"/>
      <point x="645" y="481" type="line"/>
      <point x="549" y="481" type="line"/>
      <point x="624" y="700" type="line"/>
      <point x="558" y="700" type="line"/>
      <point x="483" y="481" type="line"/>
      <point x="296" y="481" type="line"/>
      <point x="371" y="700" type="line"/>
      <point x="305" y="700" type="line"/>
      <point x="230" y="481" type="line"/>
      <point x="91" y="481" type="line"/>
      <point x="91" y="423" type="line"/>
      <point x="210" y="423" type="line"/>
      <point x="160" y="277" type="line"/>
      <point x="43" y="277" type="line"/>
      <point x="43" y="219" type="line"/>
      <point x="140" y="219" type="line"/>
    </contour>
    <contour>
      <point x="226" y="277" type="line"/>
      <point x="276" y="423" type="line"/>
      <point x="463" y="423" type="line"/>
      <point x="413" y="277" type="line"/>
    </contour>
  </outline>
</glyph>
<glyph name="ampersand" format="2">
  <advance width="669"/>
  <unicode hex="0026"/>
  <outline>
    <contour>
      <point x="654" y="40" type="line"/>
      <point x="616" y="69"/>
      <point x="573" y="104"/>
      <point x="530" y="141" type="curve"/>
      <point x="571" y="203"/>
      <point x="599" y="277"/>
      <point x="616" y="363" type="curve"/>
      <point x="548" y="374" type="line"/>
      <point x="535" y="304"/>
      <point x="513" y="239"/>
      <point x="480" y="186" type="curve"/>
      <point x="412" y="248"/>
      <point x="345" y="314"/>
      <point x="290" y="375" type="curve"/>
      <point x="340" y="405" type="line" smooth="yes"/>
      <point x="417" y="450"/>
      <point x="452" y="501"/>
      <point x="452" y="566" type="curve" smooth="yes"/>
      <point x="452" y="651"/>
      <point x="386" y="710"/>
      <point x="294" y="710" type="curve" smooth="yes"/>
      <point x="197" y="710"/>
      <point x="125" y="640"/>
      <point x="125" y="546" type="curve" smooth="yes"/>
      <point x="125" y="492"/>
      <point x="142" y="448"/>
      <point x="189" y="389" type="curve"/>
      <point x="170" y="378" type="line" smooth="yes"/>
      <point x="72" y="324"/>
      <point x="34" y="269"/>
      <point x="34" y="188" type="curve"/>
      <point x="34" y="69"/>
      <point x="126" y="-10"/>
      <point x="265" y="-10" type="curve" smooth="yes"/>
      <point x="353" y="-10"/>
      <point x="431" y="23"/>
      <point x="489" y="84" type="curve"/>
      <point x="530" y="49"/>
      <point x="571" y="16"/>
      <point x="609" y="-13" type="curve"/>
    </contour>
    <contour>
      <point x="195" y="547" type="curve" smooth="yes"/>
      <point x="195" y="608"/>
      <point x="236" y="650"/>
      <point x="292" y="650" type="curve" smooth="yes"/>
      <point x="342" y="650"/>
      <point x="382" y="613"/>
      <point x="382" y="564" type="curve" smooth="yes"/>
      <point x="382" y="519"/>
      <point x="357" y="483"/>
      <point x="308" y="454" type="curve" smooth="yes"/>
      <point x="251" y="421" type="line"/>
      <point x="209" y="472"/>
      <point x="195" y="506"/>
    </contour>
    <contour>
      <point x="104" y="190" type="curve"/>
      <point x="104" y="248"/>
      <point x="133" y="287"/>
      <point x="205" y="328" type="curve" smooth="yes"/>
      <point x="228" y="341" type="line"/>
      <point x="287" y="273"/>
      <point x="363" y="198"/>
      <point x="440" y="128" type="curve"/>
      <point x="395" y="79"/>
      <point x="335" y="53"/>
      <point x="268" y="53" type="curve" smooth="yes"/>
      <point x="170" y="53"/>
      <point x="104" y="107"/>
    </contour>
  </outline>
</glyph>
<glyph name="plus" format="2">
  <advance width="530"/>
  <unicode hex="002B"/>
  <outline>
    <contour>
      <point x="295" y="145" type="line"/>
      <point x="295" y="327" type="line"/>
      <point x="462" y="327" type="line"/>
      <point x="462" y="389" type="line"/>
      <point x="295" y="389" type="line"/>
      <point x="295" y="567" type="line"/>
      <point x="235" y="567" type="line"/>
      <point x="235" y="389" type="line"/>
      <point x="67" y="389" type="line"/>
      <point x="67" y="327" type="line"/>
      <point x="235" y="327" type="line"/>
      <point x="235" y="145" type="line"/>
    </contour>
  </outline>
</glyph>
<glyph name="comma" format="2">
  <advance width="220"/>
  <unicode hex="002C"/>
  <outline>
    <contour>
      <point x="87" y="74" type="line"/>
      <point x="27" y="-157" type="line"/>
      <point x="84" y="-157" type="line"/>
      <point x="165" y="74" type="line"/>
    </contour>
  </outline>
</glyph>
<glyph name="period" format="2">
  <advance width="220"/>
  <unicode hex="002E"/>
  <outline>
    <contour>
      <point x="110" y="101" type="curve" smooth="yes"/>
      <point x="81" y="101"/>
      <point x="57" y="77"/>
      <point x="57" y="47" type="curve" smooth="yes"/>
      <point x="57" y="16"/>
      <point x="81" y="-8"/>
      <point x="110" y="-8" type="curve" smooth="yes"/>
      <point x="138" y="-8"/>
      <point x="162" y="16"/>
      <point x="162" y="47" type="curve" smooth="yes"/>
      <point x="162" y="77"/>
      <point x="138" y="101"/>
    </contour>
  </outline>
</glyph>
<glyph name="three" format="2">
  <advance width="586"/>
  <unicode hex="0033"/>
  <outline>
    <contour>
      <point x="526" y="192" type="curve"/>
      <point x="526" y="273"/>
      <point x="463" y="340"/>
      <point x="369" y="360" type="curve"/>
      <point x="448" y="383"/>
      <point x="500" y="445"/>
      <point x="500" y="519" type="curve"/>
      <point x="500" y="629"/>
      <point x="405" y="711"/>
      <point x="277" y="711" type="curve"/>
      <point x="188" y="711"/>
      <point x="108" y="676"/>
      <point x="45" y="610" type="curve"/>
      <point x="93" y="562" type="line"/>
      <point x="152" y="623"/>
      <point x="204" y="647"/>
      <point x="276" y="647" type="curve"/>
      <point x="362" y="647"/>
      <point x="428" y="589"/>
      <point x="428" y="515" type="curve"/>
      <point x="428" y="440"/>
      <point x="376" y="389"/>
      <point x="300" y="389" type="curve"/>
      <point x="220" y="389" type="line"/>
      <point x="220" y="327" type="line"/>
      <point x="303" y="327" type="line"/>
      <point x="391" y="327"/>
      <point x="454" y="271"/>
      <point x="454" y="194" type="curve"/>
      <point x="454" y="111"/>
      <point x="382" y="53"/>
      <point x="280" y="53" type="curve"/>
      <point x="201" y="53"/>
      <point x="143" y="77"/>
      <point x="84" y="136" type="curve"/>
      <point x="36" y="89" type="line"/>
      <point x="100" y="24"/>
      <point x="185" y="-10"/>
      <point x="281" y="-10" type="curve"/>
      <point x="423" y="-10"/>
      <point x="526" y="75"/>
    </contour>
  </outline>
</glyph>
<glyph name="six" format="2">
  <advance width="619"/>
  <unicode hex="0036"/>
  <outline>
    <contour>
      <point x="331" y="-8" type="curve"/>
      <point x="467" y="-8"/>
      <point x="568" y="89"/>
      <point x="568" y="221" type="curve" smooth="yes"/>
      <point x="568" y="347"/>
      <point x="470" y="439"/>
      <point x="334" y="439" type="curve"/>
      <point x="257" y="439"/>
      <point x="181" y="400"/>
      <point x="129" y="333" type="curve"/>
      <point x="132" y="526"/>
      <point x="221" y="643"/>
      <point x="365" y="643" type="curve"/>
      <point x="411" y="643"/>
      <point x="458" y="629"/>
      <point x="499" y="605" type="curve"/>
      <point x="535" y="661" type="line"/>
      <point x="490" y="691"/>
      <point x="429" y="708"/>
      <point x="371" y="708" type="curve"/>
      <point x="182" y="708"/>
      <point x="57" y="556"/>
      <point x="57" y="326" type="curve" smooth="yes"/>
      <point x="57" y="130"/>
      <point x="170" y="-8"/>
    </contour>
    <contour>
      <point x="324" y="380" type="curve"/>
      <point x="425" y="380"/>
      <point x="496" y="313"/>
      <point x="496" y="219" type="curve" smooth="yes"/>
      <point x="496" y="125"/>
      <point x="425" y="55"/>
      <point x="330" y="55" type="curve"/>
      <point x="223" y="55"/>
      <point x="146" y="143"/>
      <point x="131" y="277" type="curve"/>
      <point x="181" y="341"/>
      <point x="251" y="380"/>
    </contour>
  </outline>
</glyph>
<glyph name="seven" format="2">
  <advance width="558"/>
  <unicode hex="0037"/>
  <outline>
    <contour>
      <point x="102" y="0" type="line"/>
      <point x="184" y="0" type="line"/>
      <point x="528" y="644" type="line"/>
      <point x="528" y="700" type="line"/>
      <point x="29" y="700" type="line"/>
      <point x="29" y="636" type="line"/>
      <point x="450" y="636" type="line"/>
    </contour>
  </outline>
</glyph>
<glyph name="eight" format="2">
  <advance width="614"/>
  <unicode hex="0038"/>
  <note>
Version created Tue Sep 18 15:49:42 2018
</note>
  <outline>
    <contour>
      <point x="307" y="-10" type="curve"/>
      <point x="452" y="-10"/>
      <point x="556" y="73"/>
      <point x="556" y="189" type="curve" smooth="yes"/>
      <point x="556" y="275"/>
      <point x="489" y="346"/>
      <point x="392" y="369" type="curve"/>
      <point x="474" y="392"/>
      <point x="530" y="455"/>
      <point x="530" y="529" type="curve" smooth="yes"/>
      <point x="530" y="633"/>
      <point x="434" y="711"/>
      <point x="307" y="711" type="curve"/>
      <point x="180" y="711"/>
      <point x="85" y="633"/>
      <point x="85" y="529" type="curve" smooth="yes"/>
      <point x="85" y="455"/>
      <point x="141" y="392"/>
      <point x="223" y="369" type="curve"/>
      <point x="126" y="346"/>
      <point x="58" y="274"/>
      <point x="58" y="189" type="curve" smooth="yes"/>
      <point x="58" y="74"/>
      <point x="163" y="-10"/>
    </contour>
    <contour>
      <point x="307" y="399" type="curve"/>
      <point x="222" y="399"/>
      <point x="155" y="454"/>
      <point x="155" y="526" type="curve"/>
      <point x="155" y="598"/>
      <point x="221" y="653"/>
      <point x="307" y="653" type="curve"/>
      <point x="394" y="653"/>
      <point x="460" y="598"/>
      <point x="460" y="526" type="curve"/>
      <point x="460" y="454"/>
      <point x="393" y="399"/>
    </contour>
    <contour>
      <point x="307" y="49" type="curve"/>
      <point x="206" y="49"/>
      <point x="129" y="112"/>
      <point x="129" y="194" type="curve"/>
      <point x="129" y="275"/>
      <point x="206" y="337"/>
      <point x="307" y="337" type="curve"/>
      <point x="408" y="337"/>
      <point x="485" y="275"/>
      <point x="485" y="194" type="curve"/>
      <point x="485" y="112"/>
      <point x="408" y="49"/>
    </contour>
  </outline>
</glyph>
<glyph name="E" format="2">
  <advance width="619"/>
  <unicode hex="0045"/>
  <anchor x="341" y="700" name="top"/>
  <anchor x="570" y="0" name="bottom"/>
  <outline>
    <contour>
      <point x="89" y="0" type="line"/>
      <point x="571" y="0" type="line"/>
      <point x="571" y="67" type="line"/>
      <point x="166" y="67" type="line"/>
      <point x="166" y="320" type="line"/>
      <point x="444" y="320" type="line"/>
      <point x="444" y="387" type="line"/>
      <point x="166" y="387" type="line"/>
      <point x="166" y="633" type="line"/>
      <point x="567" y="633" type="line"/>
      <point x="567" y="700" type="line"/>
      <point x="89" y="700" type="line"/>
    </contour>
  </outline>
</glyph>
<glyph name="V" format="2">
  <advance width="660"/>
  <unicode hex="0056"/>
  <outline>
    <contour>
      <point x="283" y="0" type="line"/>
      <point x="375" y="0" type="line"/>
      <point x="651" y="700" type="line"/>
      <point x="572" y="700" type="line"/>
      <point x="331" y="74" type="line"/>
      <point x="91" y="700" type="line"/>
      <point x="9" y="700" type="line"/>
    </contour>
  </outline>
</glyph>
<glyph name="X" format="2">
  <advance width="654"/>
  <unicode hex="0058"/>
  <outline>
    <contour>
      <point x="101" y="0" type="line"/>
      <point x="326" y="305" type="line"/>
      <point x="550" y="0" type="line"/>
      <point x="643" y="0" type="line"/>
      <point x="371" y="364" type="line"/>
      <point x="622" y="700" type="line"/>
      <point x="532" y="700" type="line"/>
      <point x="327" y="422" type="line"/>
      <point x="120" y="700" type="line"/>
      <point x="28" y="700" type="line"/>
      <point x="281" y="362" type="line"/>
      <point x="11" y="0" type="line"/>
    </contour>
  </outline>
</glyph>
<glyph name="g" format="2">
  <advance width="582"/>
  <unicode hex="0067"/>
  <anchor x="293" y="488" name="top"/>
  <outline>
    <contour>
      <point x="278" y="-6" type="curve"/>
      <point x="342" y="-6"/>
      <point x="397" y="19"/>
      <point x="434" y="66" type="curve"/>
      <point x="434" y="-26" type="line" smooth="yes"/>
      <point x="434" y="-108"/>
      <point x="387" y="-151"/>
      <point x="298" y="-151" type="curve"/>
      <point x="248" y="-151"/>
      <point x="202" y="-137"/>
      <point x="142" y="-106" type="curve"/>
      <point x="111" y="-162" type="line"/>
      <point x="167" y="-194"/>
      <point x="235" y="-213"/>
      <point x="301" y="-213" type="curve"/>
      <point x="434" y="-213"/>
      <point x="507" y="-146"/>
      <point x="507" y="-25" type="curve" smooth="yes"/>
      <point x="507" y="488" type="line"/>
      <point x="435" y="488" type="line"/>
      <point x="435" y="425" type="line"/>
      <point x="396" y="470"/>
      <point x="343" y="494"/>
      <point x="282" y="494" type="curve"/>
      <point x="153" y="494"/>
      <point x="53" y="384"/>
      <point x="53" y="244" type="curve" smooth="yes"/>
      <point x="53" y="104"/>
      <point x="151" y="-6"/>
    </contour>
    <contour>
      <point x="125" y="244" type="curve" smooth="yes"/>
      <point x="125" y="351"/>
      <point x="198" y="430"/>
      <point x="296" y="430" type="curve"/>
      <point x="351" y="430"/>
      <point x="402" y="405"/>
      <point x="434" y="364" type="curve"/>
      <point x="434" y="123" type="line"/>
      <point x="403" y="81"/>
      <point x="353" y="57"/>
      <point x="296" y="57" type="curve"/>
      <point x="198" y="57"/>
      <point x="125" y="137"/>
    </contour>
  </outline>
</glyph>
<glyph name="i" format="2">
  <advance width="223"/>
  <unicode hex="0069"/>
  <anchor x="112" y="488" name="top"/>
  <anchor x="148" y="0" name="bottom"/>
  <outline>
    <contour>
      <point x="112" y="608" type="curve" smooth="yes"/>
      <point x="141" y="608"/>
      <point x="164" y="631"/>
      <point x="164" y="661" type="curve" smooth="yes"/>
      <point x="164" y="689"/>
      <point x="140" y="713"/>
      <point x="112" y="713" type="curve" smooth="yes"/>
      <point x="83" y="713"/>
      <point x="59" y="689"/>
      <point x="59" y="661" type="curve" smooth="yes"/>
      <point x="59" y="631"/>
      <point x="82" y="608"/>
    </contour>
    <contour>
      <point x="148" y="488" type="line"/>
      <point x="75" y="488" type="line"/>
      <point x="75" y="0" type="line"/>
      <point x="148" y="0" type="line"/>
    </contour>
  </outline>
</glyph>
<glyph name="l" format="2">
  <advance width="223"/>
  <unicode hex="006C"/>
  <anchor x="112" y="699" name="top"/>
  <anchor x="112" y="0" name="bottom"/>
  <outline>
    <contour>
      <point x="148" y="730" type="line"/>
      <point x="75" y="715" type="line"/>
      <point x="75" y="0" type="line"/>
      <point x="148" y="0" type="line"/>
    </contour>
  </outline>
</glyph>
<glyph name="o" format="2">
  <advance width="581"/>
  <unicode hex="006F"/>
  <anchor x="290" y="488" name="top"/>
  <outline>
    <contour>
      <point x="53" y="244" type="curve" smooth="yes"/>
      <point x="53" y="100"/>
      <point x="156" y="-10"/>
      <point x="290" y="-10" type="curve" smooth="yes"/>
      <point x="425" y="-10"/>
      <point x="528" y="99"/>
      <point x="528" y="244" type="curve" smooth="yes"/>
      <point x="528" y="388"/>
      <point x="426" y="496"/>
      <point x="290" y="496" type="curve" smooth="yes"/>
      <point x="155" y="496"/>
      <point x="53" y="388"/>
    </contour>
    <contour>
      <point x="290" y="55" type="curve" smooth="yes"/>
      <point x="195" y="55"/>
      <point x="125" y="134"/>
      <point x="125" y="243" type="curve" smooth="yes"/>
      <point x="125" y="351"/>
      <point x="195" y="432"/>
      <point x="290" y="432" type="curve" smooth="yes"/>
      <point x="385" y="432"/>
      <point x="456" y="351"/>
      <point x="456" y="243" type="curve" smooth="yes"/>
      <point x="456" y="135"/>
      <point x="385" y="55"/>
    </contour>
  </outline>
</glyph>
<glyph name="r" format="2">
  <advance width="352"/>
  <unicode hex="0072"/>
  <anchor x="195" y="488" name="top"/>
  <anchor x="114" y="0" name="bottom"/>
  <outline>
    <contour>
      <point x="75" y="0" type="line"/>
      <point x="148" y="0" type="line"/>
      <point x="148" y="334" type="line"/>
      <point x="173" y="397"/>
      <point x="219" y="433"/>
      <point x="279" y="433" type="curve"/>
      <point x="295" y="433"/>
      <point x="314" y="429"/>
      <point x="330" y="424" type="curve"/>
      <point x="330" y="490" type="line"/>
      <point x="315" y="495"/>
      <point x="301" y="497"/>
      <point x="284" y="497" type="curve"/>
      <point x="222" y="497"/>
      <point x="173" y="457"/>
      <point x="148" y="389" type="curve"/>
      <point x="148" y="488" type="line"/>
      <point x="75" y="488" type="line"/>
    </contour>
  </outline>
</glyph>
<glyph name="t" format="2">
  <advance width="378"/>
  <unicode hex="0074"/>
  <anchor x="235" y="0" name="bottom"/>
  <outline>
    <contour>
      <point x="133" y="110" type="line"/>
      <point x="133" y="32"/>
      <point x="177" y="-9"/>
      <point x="261" y="-9" type="curve"/>
      <point x="289" y="-9"/>
      <point x="319" y="-5"/>
      <point x="346" y="4" type="curve"/>
      <point x="346" y="69" type="line"/>
      <point x="319" y="59"/>
      <point x="302" y="56"/>
      <point x="277" y="56" type="curve"/>
      <point x="226" y="56"/>
      <point x="206" y="77"/>
      <point x="206" y="129" type="curve" smooth="yes"/>
      <point x="206" y="428" type="line"/>
      <point x="346" y="428" type="line"/>
      <point x="346" y="488" type="line"/>
      <point x="206" y="488" type="line"/>
      <point x="206" y="639" type="line"/>
      <point x="133" y="622" type="line"/>
      <point x="133" y="488" type="line"/>
      <point x="32" y="488" type="line"/>
      <point x="32" y="428" type="line"/>
      <point x="133" y="428" type="line"/>
    </contour>
  </outline>
</glyph>
<glyph name="x" format="2">
  <advance width="487"/>
  <unicode hex="0078"/>
  <outline>
    <contour>
      <point x="13" y="0" type="line"/>
      <point x="96" y="0" type="line"/>
      <point x="241" y="199" type="line"/>
      <point x="387" y="0" type="line"/>
      <point x="474" y="0" type="line"/>
      <point x="285" y="253" type="line"/>
      <point x="460" y="488" type="line"/>
      <point x="377" y="488" type="line"/>
      <point x="244" y="303" type="line"/>
      <point x="109" y="488" type="line"/>
      <point x="22" y="488" type="line"/>
      <point x="199" y="251" type="line"/>
    </contour>
  </outline>
</glyph>
<glyph name="y" format="2">
  <advance width="498"/>
  <unicode hex="0079"/>
  <anchor x="245" y="488" name="top"/>
  <outline>
    <contour>
      <point x="171" y="-78" type="line" smooth="yes"/>
      <point x="153" y="-122"/>
      <point x="130" y="-140"/>
      <point x="93" y="-140" type="curve"/>
      <point x="82" y="-140"/>
      <point x="73" y="-140"/>
      <point x="53" y="-136" type="curve"/>
      <point x="53" y="-201" type="line"/>
      <point x="70" y="-206"/>
      <point x="86" y="-208"/>
      <point x="100" y="-208" type="curve"/>
      <point x="172" y="-208"/>
      <point x="209" y="-179"/>
      <point x="240" y="-100" type="curve" smooth="yes"/>
      <point x="482" y="488" type="line"/>
      <point x="401" y="488" type="line"/>
      <point x="244" y="87" type="line"/>
      <point x="96" y="488" type="line"/>
      <point x="15" y="488" type="line"/>
      <point x="203" y="1" type="line"/>
    </contour>
  </outline>
</glyph>
<glyph name="bar" format="2">
  <advance width="291"/>
  <unicode hex="007C"/>
  <outline>
    <contour>
      <point x="113" y="-206" type="line"/>
      <point x="180" y="-206" type="line"/>
      <point x="180" y="700" type="line"/>
      <point x="113" y="700" type="line"/>
    </contour>
  </outline>
</glyph>
<glyph name="asciitilde" format="2">
  <advance width="581"/>
  <unicode hex="007E"/>
  <outline>
    <contour>
      <point x="262" y="425" type="line" smooth="yes"/>
      <point x="224" y="446"/>
      <point x="199" y="454"/>
      <point x="174" y="454" type="curve" smooth="yes"/>
      <point x="108" y="454"/>
      <point x="64" y="401"/>
      <point x="53" y="308" type="curve"/>
      <point x="110" y="301" type="line"/>
      <point x="118" y="362"/>
      <point x="141" y="392"/>
      <point x="179" y="392" type="curve" smooth="yes"/>
      <point x="196" y="392"/>
      <point x="210" y="387"/>
      <point x="243" y="369" type="curve" smooth="yes"/>
      <point x="318" y="329" type="line" smooth="yes"/>
      <point x="354" y="309"/>
      <point x="381" y="301"/>
      <point x="407" y="301" type="curve" smooth="yes"/>
      <point x="472" y="301"/>
      <point x="517" y="354"/>
      <point x="527" y="447" type="curve"/>
      <point x="471" y="454" type="line"/>
      <point x="464" y="394"/>
      <point x="440" y="363"/>
      <point x="401" y="363" type="curve" smooth="yes"/>
      <point x="384" y="363"/>
      <point x="369" y="369"/>
      <point x="337" y="385" type="curve" smooth="yes"/>
    </contour>
  </outline>
</glyph>
<glyph name="cent" format="2">
  <advance width="520"/>
  <unicode hex="00A2"/>
  <outline>
    <contour>
      <point x="264" y="-118" type="line"/>
      <point x="314" y="-118" type="line"/>
      <point x="314" y="-6" type="line"/>
      <point x="377" y="-1"/>
      <point x="436" y="27"/>
      <point x="479" y="72" type="curve"/>
      <point x="434" y="117" type="line"/>
      <point x="403" y="83"/>
      <point x="361" y="63"/>
      <point x="314" y="60" type="curve"/>
      <point x="314" y="431" type="line"/>
      <point x="359" y="427"/>
      <point x="404" y="405"/>
      <point x="435" y="371" type="curve"/>
      <point x="482" y="422" type="line"/>
      <point x="438" y="466"/>
      <point x="378" y="493"/>
      <point x="314" y="497" type="curve"/>
      <point x="314" y="609" type="line"/>
      <point x="264" y="609" type="line"/>
      <point x="264" y="496" type="line"/>
      <point x="143" y="481"/>
      <point x="53" y="376"/>
      <point x="53" y="246" type="curve" smooth="yes"/>
      <point x="53" y="115"/>
      <point x="144" y="10"/>
      <point x="264" y="-5" type="curve"/>
    </contour>
    <contour>
      <point x="126" y="246" type="curve" smooth="yes"/>
      <point x="126" y="338"/>
      <point x="184" y="412"/>
      <point x="264" y="429" type="curve"/>
      <point x="264" y="62" type="line"/>
      <point x="184" y="79"/>
      <point x="126" y="153"/>
    </contour>
  </outline>
</glyph>
<glyph name="sterling" format="2">
  <advance width="616"/>
  <unicode hex="00A3"/>
  <anchor x="123" y="-11" name="top"/>
  <anchor x="336" y="-11" name="top"/>
  <anchor x="263" y="689" name="bottom"/>
  <outline>
    <contour>
      <point x="205" y="27" type="curve" smooth="yes"/>
      <point x="399" y="-14" type="line" smooth="yes"/>
      <point x="493" y="-35"/>
      <point x="558" y="-9"/>
      <point x="603" y="69" type="curve"/>
      <point x="548" y="104" type="line"/>
      <point x="519" y="51"/>
      <point x="479" y="35"/>
      <point x="412" y="49" type="curve" smooth="yes"/>
      <point x="218" y="89" type="line"/>
      <point x="242" y="114"/>
      <point x="251" y="155"/>
      <point x="242" y="207" type="curve" smooth="yes"/>
      <point x="225" y="312" type="line"/>
      <point x="414" y="312" type="line"/>
      <point x="414" y="369" type="line"/>
      <point x="215" y="369" type="line"/>
      <point x="203" y="441" type="line" smooth="yes"/>
      <point x="180" y="571"/>
      <point x="227" y="646"/>
      <point x="332" y="646" type="curve"/>
      <point x="412" y="646"/>
      <point x="464" y="601"/>
      <point x="483" y="516" type="curve"/>
      <point x="549" y="535" type="line"/>
      <point x="522" y="649"/>
      <point x="447" y="709"/>
      <point x="332" y="709" type="curve"/>
      <point x="182" y="709"/>
      <point x="104" y="596"/>
      <point x="134" y="422" type="curve" smooth="yes"/>
      <point x="143" y="369" type="line"/>
      <point x="52" y="369" type="line"/>
      <point x="52" y="312" type="line"/>
      <point x="153" y="312" type="line"/>
      <point x="175" y="187" type="line" smooth="yes"/>
      <point x="183" y="143"/>
      <point x="172" y="111"/>
      <point x="148" y="95" type="curve"/>
      <point x="90" y="90"/>
      <point x="46" y="59"/>
      <point x="12" y="-1" type="curve"/>
      <point x="66" y="-37" type="line"/>
      <point x="96" y="22"/>
      <point x="136" y="41"/>
    </contour>
  </outline>
</glyph>
<glyph name="uni00A4" format="2">
  <advance width="701"/>
  <unicode hex="00A4"/>
  <outline>
    <contour>
      <point x="95" y="64" type="line"/>
      <point x="188" y="158" type="line"/>
      <point x="232" y="122"/>
      <point x="289" y="100"/>
      <point x="351" y="100" type="curve" smooth="yes"/>
      <point x="412" y="100"/>
      <point x="468" y="121"/>
      <point x="512" y="157" type="curve"/>
      <point x="606" y="63" type="line"/>
      <point x="646" y="104" type="line"/>
      <point x="552" y="199" type="line"/>
      <point x="586" y="243"/>
      <point x="606" y="299"/>
      <point x="606" y="361" type="curve" smooth="yes"/>
      <point x="606" y="424"/>
      <point x="585" y="480"/>
      <point x="550" y="524" type="curve"/>
      <point x="645" y="619" type="line"/>
      <point x="606" y="659" type="line"/>
      <point x="512" y="564" type="line"/>
      <point x="468" y="600"/>
      <point x="412" y="621"/>
      <point x="351" y="621" type="curve" smooth="yes"/>
      <point x="290" y="621"/>
      <point x="234" y="600"/>
      <point x="190" y="564" type="curve"/>
      <point x="96" y="659" type="line"/>
      <point x="56" y="618" type="line"/>
      <point x="150" y="523" type="line"/>
      <point x="115" y="479"/>
      <point x="95" y="423"/>
      <point x="95" y="361" type="curve" smooth="yes"/>
      <point x="95" y="299"/>
      <point x="115" y="242"/>
      <point x="149" y="198" type="curve"/>
      <point x="56" y="104" type="line"/>
    </contour>
    <contour>
      <point x="351" y="166" type="curve" smooth="yes"/>
      <point x="248" y="166"/>
      <point x="168" y="252"/>
      <point x="168" y="361" type="curve" smooth="yes"/>
      <point x="168" y="470"/>
      <point x="249" y="555"/>
      <point x="351" y="555" type="curve" smooth="yes"/>
      <point x="453" y="555"/>
      <point x="533" y="470"/>
      <point x="533" y="361" type="curve" smooth="yes"/>
      <point x="533" y="252"/>
      <point x="453" y="166"/>
    </contour>
  </outline>
</glyph>
<glyph name="yen" format="2">
  <advance width="656"/>
  <unicode hex="00A5"/>
  <outline>
    <contour>
      <point x="107" y="209" type="line"/>
      <point x="107" y="158" type="line"/>
      <point x="284" y="158" type="line"/>
      <point x="284" y="0" type="line"/>
      <point x="361" y="0" type="line"/>
      <point x="361" y="158" type="line"/>
      <point x="538" y="158" type="line"/>
      <point x="538" y="209" type="line"/>
      <point x="361" y="209" type="line"/>
      <point x="361" y="284" type="line"/>
      <point x="362" y="286" type="line"/>
      <point x="538" y="286" type="line"/>
      <point x="538" y="338" type="line"/>
      <point x="396" y="338" type="line"/>
      <point x="634" y="700" type="line"/>
      <point x="549" y="700" type="line"/>
      <point x="325" y="353" type="line"/>
      <point x="102" y="700" type="line"/>
      <point x="12" y="700" type="line"/>
      <point x="250" y="338" type="line"/>
      <point x="107" y="338" type="line"/>
      <point x="107" y="286" type="line"/>
      <point x="284" y="286" type="line"/>
      <point x="284" y="209" type="line"/>
    </contour>
  </outline>
</glyph>
<glyph name="section" format="2">
  <advance width="568"/>
  <unicode hex="00A7"/>
  <outline>
    <contour>
      <point x="445" y="86" type="curve" smooth="yes"/>
      <point x="445" y="130"/>
      <point x="428" y="164"/>
      <point x="394" y="189" type="curve"/>
      <point x="459" y="208"/>
      <point x="498" y="253"/>
      <point x="498" y="314" type="curve" smooth="yes"/>
      <point x="498" y="387"/>
      <point x="462" y="426"/>
      <point x="364" y="459" type="curve" smooth="yes"/>
      <point x="261" y="495" type="line" smooth="yes"/>
      <point x="211" y="512"/>
      <point x="188" y="537"/>
      <point x="188" y="576" type="curve" smooth="yes"/>
      <point x="188" y="625"/>
      <point x="225" y="655"/>
      <point x="287" y="655" type="curve" smooth="yes"/>
      <point x="327" y="655"/>
      <point x="376" y="639"/>
      <point x="429" y="608" type="curve"/>
      <point x="458" y="661" type="line"/>
      <point x="401" y="692"/>
      <point x="341" y="710"/>
      <point x="287" y="710" type="curve" smooth="yes"/>
      <point x="188" y="710"/>
      <point x="122" y="655"/>
      <point x="122" y="573" type="curve" smooth="yes"/>
      <point x="122" y="529"/>
      <point x="139" y="495"/>
      <point x="173" y="469" type="curve"/>
      <point x="109" y="452"/>
      <point x="70" y="407"/>
      <point x="70" y="345" type="curve" smooth="yes"/>
      <point x="70" y="273"/>
      <point x="106" y="234"/>
      <point x="203" y="201" type="curve" smooth="yes"/>
      <point x="307" y="165" type="line" smooth="yes"/>
      <point x="358" y="148"/>
      <point x="379" y="123"/>
      <point x="379" y="84" type="curve" smooth="yes"/>
      <point x="379" y="35"/>
      <point x="342" y="5"/>
      <point x="281" y="5" type="curve" smooth="yes"/>
      <point x="240" y="5"/>
      <point x="192" y="21"/>
      <point x="139" y="51" type="curve"/>
      <point x="110" y="-2" type="line"/>
      <point x="165" y="-33"/>
      <point x="225" y="-50"/>
      <point x="281" y="-50" type="curve" smooth="yes"/>
      <point x="380" y="-50"/>
      <point x="445" y="4"/>
    </contour>
    <contour>
      <point x="328" y="223" type="curve" smooth="yes"/>
      <point x="219" y="260" type="line" smooth="yes"/>
      <point x="159" y="282"/>
      <point x="133" y="309"/>
      <point x="133" y="350" type="curve" smooth="yes"/>
      <point x="133" y="400"/>
      <point x="170" y="433"/>
      <point x="229" y="440" type="curve"/>
      <point x="232" y="438"/>
      <point x="236" y="437"/>
      <point x="239" y="436" type="curve" smooth="yes"/>
      <point x="349" y="399" type="line" smooth="yes"/>
      <point x="408" y="378"/>
      <point x="435" y="351"/>
      <point x="435" y="309" type="curve" smooth="yes"/>
      <point x="435" y="261"/>
      <point x="397" y="227"/>
      <point x="338" y="219" type="curve"/>
      <point x="335" y="221"/>
      <point x="331" y="222"/>
    </contour>
  </outline>
</glyph>
<glyph name="dieresis" format="2">
  <advance width="543"/>
  <unicode hex="00A8"/>
  <anchor x="272" y="488" name="_top"/>
  <outline>
    <contour>
      <point x="182" y="601" type="curve" smooth="yes"/>
      <point x="209" y="601"/>
      <point x="232" y="623"/>
      <point x="232" y="652" type="curve" smooth="yes"/>
      <point x="232" y="681"/>
      <point x="209" y="703"/>
      <point x="182" y="703" type="curve" smooth="yes"/>
      <point x="154" y="703"/>
      <point x="132" y="681"/>
      <point x="132" y="652" type="curve" smooth="yes"/>
      <point x="132" y="623"/>
      <point x="154" y="601"/>
    </contour>
    <contour>
      <point x="361" y="601" type="curve" smooth="yes"/>
      <point x="388" y="601"/>
      <point x="411" y="623"/>
      <point x="411" y="652" type="curve" smooth="yes"/>
      <point x="411" y="681"/>
      <point x="388" y="703"/>
      <point x="361" y="703" type="curve" smooth="yes"/>
      <point x="333" y="703"/>
      <point x="311" y="681"/>
      <point x="311" y="652" type="curve" smooth="yes"/>
      <point x="311" y="623"/>
      <point x="333" y="601"/>
    </contour>
  </outline>
</glyph>
<glyph name="uni00AC" format="2">
  <advance width="567"/>
  <unicode hex="00AC"/>
  <outline>
    <contour>
      <point x="59" y="314" type="line"/>
      <point x="59" y="248" type="line"/>
      <point x="442" y="248" type="line"/>
      <point x="442" y="0" type="line"/>
      <point x="508" y="0" type="line"/>
      <point x="508" y="314" type="line"/>
    </contour>
  </outline>
</glyph>
<glyph name="macron" format="2">
  <advance width="523"/>
  <unicode hex="00AF"/>
  <anchor x="262" y="488" name="_top"/>
  <outline>
    <contour>
      <point x="402" y="663" type="line"/>
      <point x="129" y="663" type="line"/>
      <point x="129" y="611" type="line"/>
      <point x="402" y="611" type="line"/>
    </contour>
  </outline>
</glyph>
<glyph name="degree" format="2">
  <advance width="401"/>
  <unicode hex="00B0"/>
  <outline>
    <contour>
      <point x="201" y="424" type="curve" smooth="yes"/>
      <point x="279" y="424"/>
      <point x="342" y="489"/>
      <point x="342" y="569" type="curve" smooth="yes"/>
      <point x="342" y="646"/>
      <point x="279" y="710"/>
      <point x="201" y="710" type="curve" smooth="yes"/>
      <point x="122" y="710"/>
      <point x="59" y="647"/>
      <point x="59" y="569" type="curve" smooth="yes"/>
      <point x="59" y="488"/>
      <point x="121" y="424"/>
    </contour>
    <contour>
      <point x="201" y="472" type="curve" smooth="yes"/>
      <point x="150" y="472"/>
      <point x="108" y="515"/>
      <point x="108" y="570" type="curve"/>
      <point x="108" y="621"/>
      <point x="150" y="661"/>
      <point x="201" y="661" type="curve" smooth="yes"/>
      <point x="250" y="661"/>
      <point x="292" y="620"/>
      <point x="292" y="570" type="curve" smooth="yes"/>
      <point x="292" y="517"/>
      <point x="251" y="472"/>
    </contour>
  </outline>
</glyph>
<glyph name="plusminus" format="2">
  <advance width="530"/>
  <unicode hex="00B1"/>
  <outline>
    <contour>
      <point x="295" y="173" type="line"/>
      <point x="295" y="350" type="line"/>
      <point x="462" y="350" type="line"/>
      <point x="462" y="412" type="line"/>
      <point x="295" y="412" type="line"/>
      <point x="295" y="585" type="line"/>
      <point x="235" y="585" type="line"/>
      <point x="235" y="412" type="line"/>
      <point x="67" y="412" type="line"/>
      <point x="67" y="350" type="line"/>
      <point x="235" y="350" type="line"/>
      <point x="235" y="173" type="line"/>
    </contour>
    <contour>
      <point x="462" y="60" type="line"/>
      <point x="67" y="60" type="line"/>
      <point x="67" y="-1" type="line"/>
      <point x="462" y="-1" type="line"/>
    </contour>
  </outline>
</glyph>
<glyph name="acute" format="2">
  <advance width="523"/>
  <unicode hex="00B4"/>
  <anchor x="225" y="488" name="_top"/>
  <outline>
    <contour>
      <point x="289" y="706" type="line"/>
      <point x="177" y="584" type="line"/>
      <point x="244" y="584" type="line"/>
      <point x="388" y="706" type="line"/>
    </contour>
  </outline>
</glyph>
<glyph name="uni00B5" format="2">
  <advance width="569"/>
  <unicode hex="00B5"/>
  <outline>
    <contour>
      <point x="144" y="501" type="line"/>
      <point x="71" y="501" type="line"/>
      <point x="71" y="-205" type="line"/>
      <point x="144" y="-205" type="line"/>
      <point x="144" y="27" type="line"/>
      <point x="176" y="3"/>
      <point x="218" y="-10"/>
      <point x="265" y="-10" type="curve"/>
      <point x="330" y="-10"/>
      <point x="383" y="13"/>
      <point x="422" y="58" type="curve"/>
      <point x="422" y="0" type="line"/>
      <point x="496" y="0" type="line"/>
      <point x="496" y="501" type="line"/>
      <point x="422" y="501" type="line"/>
      <point x="422" y="133" type="line"/>
      <point x="392" y="83"/>
      <point x="344" y="55"/>
      <point x="284" y="55" type="curve" smooth="yes"/>
      <point x="198" y="55"/>
      <point x="144" y="110"/>
      <point x="144" y="199" type="curve"/>
    </contour>
  </outline>
</glyph>
<glyph name="cedilla" format="2">
  <advance width="523"/>
  <unicode hex="00B8"/>
  <anchor x="292" y="0" name="_bottom"/>
  <outline>
    <contour>
      <point x="395" y="-146" type="curve"/>
      <point x="395" y="-99"/>
      <point x="357" y="-69"/>
      <point x="298" y="-66" type="curve"/>
      <point x="313" y="0" type="line"/>
      <point x="271" y="0" type="line"/>
      <point x="246" y="-99" type="line"/>
      <point x="275" y="-99" type="line" smooth="yes"/>
      <point x="320" y="-99"/>
      <point x="346" y="-117"/>
      <point x="346" y="-148" type="curve"/>
      <point x="346" y="-180"/>
      <point x="322" y="-200"/>
      <point x="281" y="-200" type="curve"/>
      <point x="252" y="-200"/>
      <point x="225" y="-190"/>
      <point x="202" y="-171" type="curve"/>
      <point x="174" y="-203" type="line"/>
      <point x="201" y="-227"/>
      <point x="239" y="-239"/>
      <point x="284" y="-239" type="curve"/>
      <point x="349" y="-239"/>
      <point x="395" y="-200"/>
    </contour>
  </outline>
</glyph>
<glyph name="ordmasculine" format="2">
  <advance width="464"/>
  <unicode hex="00BA"/>
  <outline>
    <contour>
      <point x="36" y="510" type="curve" smooth="yes"/>
      <point x="36" y="400"/>
      <point x="122" y="314"/>
      <point x="230" y="314" type="curve" smooth="yes"/>
      <point x="339" y="314"/>
      <point x="424" y="400"/>
      <point x="424" y="510" type="curve" smooth="yes"/>
      <point x="424" y="621"/>
      <point x="339" y="707"/>
      <point x="230" y="707" type="curve" smooth="yes"/>
      <point x="122" y="707"/>
      <point x="36" y="621"/>
    </contour>
    <contour>
      <point x="364" y="510" type="curve" smooth="yes"/>
      <point x="364" y="432"/>
      <point x="305" y="369"/>
      <point x="230" y="369" type="curve" smooth="yes"/>
      <point x="156" y="369"/>
      <point x="98" y="431"/>
      <point x="98" y="510" type="curve" smooth="yes"/>
      <point x="98" y="590"/>
      <point x="156" y="652"/>
      <point x="230" y="652" type="curve" smooth="yes"/>
      <point x="305" y="652"/>
      <point x="364" y="589"/>
    </contour>
  </outline>
</glyph>
<glyph name="Ccedilla" format="2">
  <advance width="726"/>
  <unicode hex="00C7"/>
  <outline>
    <contour>
      <point x="414" y="59" type="curve"/>
      <point x="254" y="59"/>
      <point x="134" y="186"/>
      <point x="134" y="350" type="curve" smooth="yes"/>
      <point x="134" y="514"/>
      <point x="254" y="641"/>
      <point x="412" y="641" type="curve" smooth="yes"/>
      <point x="493" y="641"/>
      <point x="573" y="605"/>
      <point x="625" y="543" type="curve"/>
      <point x="676" y="596" type="line"/>
      <point x="610" y="670"/>
      <point x="515" y="711"/>
      <point x="412" y="711" type="curve" smooth="yes"/>
      <point x="212" y="711"/>
      <point x="56" y="552"/>
      <point x="56" y="350" type="curve" smooth="yes"/>
      <point x="56" y="160"/>
      <point x="194" y="7"/>
      <point x="379" y="-9" type="curve"/>
      <point x="356" y="-99" type="line"/>
      <point x="385" y="-99" type="line" smooth="yes"/>
      <point x="430" y="-99"/>
      <point x="456" y="-117"/>
      <point x="456" y="-148" type="curve"/>
      <point x="456" y="-180"/>
      <point x="432" y="-200"/>
      <point x="391" y="-200" type="curve"/>
      <point x="362" y="-200"/>
      <point x="335" y="-190"/>
      <point x="312" y="-171" type="curve"/>
      <point x="284" y="-203" type="line"/>
      <point x="311" y="-227"/>
      <point x="349" y="-239"/>
      <point x="394" y="-239" type="curve"/>
      <point x="459" y="-239"/>
      <point x="505" y="-200"/>
      <point x="505" y="-146" type="curve"/>
      <point x="505" y="-99"/>
      <point x="467" y="-69"/>
      <point x="408" y="-66" type="curve"/>
      <point x="421" y="-11" type="line"/>
      <point x="518" y="-9"/>
      <point x="608" y="32"/>
      <point x="674" y="104" type="curve"/>
      <point x="624" y="155" type="line"/>
      <point x="573" y="94"/>
      <point x="495" y="59"/>
    </contour>
  </outline>
</glyph>
<glyph name="Eth" format="2">
  <advance width="760"/>
  <unicode hex="00D0"/>
  <outline>
    <contour>
      <point x="121" y="0" type="line"/>
      <point x="353" y="0" type="line" smooth="yes"/>
      <point x="560" y="0"/>
      <point x="703" y="151"/>
      <point x="703" y="350" type="curve" smooth="yes"/>
      <point x="703" y="549"/>
      <point x="559" y="700"/>
      <point x="353" y="700" type="curve" smooth="yes"/>
      <point x="121" y="700" type="line"/>
      <point x="121" y="383" type="line"/>
      <point x="25" y="383" type="line"/>
      <point x="25" y="317" type="line"/>
      <point x="121" y="317" type="line"/>
    </contour>
    <contour>
      <point x="358" y="631" type="line"/>
      <point x="509" y="631"/>
      <point x="625" y="510"/>
      <point x="625" y="350" type="curve" smooth="yes"/>
      <point x="625" y="190"/>
      <point x="509" y="69"/>
      <point x="358" y="69" type="curve"/>
      <point x="198" y="69" type="line"/>
      <point x="198" y="317" type="line"/>
      <point x="364" y="317" type="line"/>
      <point x="364" y="383" type="line"/>
      <point x="198" y="383" type="line"/>
      <point x="198" y="631" type="line"/>
    </contour>
  </outline>
</glyph>
<glyph name="multiply" format="2">
  <advance width="547"/>
  <unicode hex="00D7"/>
  <outline>
    <contour>
      <point x="125" y="162" type="line"/>
      <point x="272" y="319" type="line"/>
      <point x="420" y="161" type="line"/>
      <point x="460" y="202" type="line"/>
      <point x="311" y="360" type="line"/>
      <point x="459" y="517" type="line"/>
      <point x="420" y="557" type="line"/>
      <point x="273" y="400" type="line"/>
      <point x="126" y="557" type="line"/>
      <point x="88" y="516" type="line"/>
      <point x="235" y="359" type="line"/>
      <point x="88" y="202" type="line"/>
    </contour>
  </outline>
</glyph>
<glyph name="ccedilla" format="2">
  <advance width="509"/>
  <unicode hex="00E7"/>
  <outline>
    <contour>
      <point x="298" y="57" type="curve" smooth="yes"/>
      <point x="201" y="57"/>
      <point x="126" y="138"/>
      <point x="126" y="244" type="curve" smooth="yes"/>
      <point x="126" y="348"/>
      <point x="201" y="430"/>
      <point x="297" y="430" type="curve" smooth="yes"/>
      <point x="348" y="430"/>
      <point x="400" y="407"/>
      <point x="435" y="369" type="curve"/>
      <point x="482" y="420" type="line"/>
      <point x="434" y="468"/>
      <point x="366" y="496"/>
      <point x="294" y="496" type="curve"/>
      <point x="158" y="496"/>
      <point x="53" y="385"/>
      <point x="53" y="244" type="curve" smooth="yes"/>
      <point x="53" y="111"/>
      <point x="146" y="6"/>
      <point x="268" y="-8" type="curve"/>
      <point x="245" y="-99" type="line"/>
      <point x="274" y="-99" type="line" smooth="yes"/>
      <point x="319" y="-99"/>
      <point x="345" y="-117"/>
      <point x="345" y="-148" type="curve"/>
      <point x="345" y="-180"/>
      <point x="321" y="-200"/>
      <point x="280" y="-200" type="curve"/>
      <point x="251" y="-200"/>
      <point x="224" y="-190"/>
      <point x="201" y="-171" type="curve"/>
      <point x="173" y="-203" type="line"/>
      <point x="200" y="-227"/>
      <point x="238" y="-239"/>
      <point x="283" y="-239" type="curve"/>
      <point x="348" y="-239"/>
      <point x="394" y="-200"/>
      <point x="394" y="-146" type="curve"/>
      <point x="394" y="-99"/>
      <point x="356" y="-69"/>
      <point x="297" y="-66" type="curve"/>
      <point x="310" y="-9" type="line"/>
      <point x="375" y="-4"/>
      <point x="436" y="24"/>
      <point x="479" y="70" type="curve"/>
      <point x="434" y="115" type="line"/>
      <point x="400" y="77"/>
      <point x="351" y="57"/>
    </contour>
  </outline>
</glyph>
<glyph name="eth" format="2">
  <advance width="590"/>
  <unicode hex="00F0"/>
  <outline>
    <contour>
      <point x="262" y="525" type="line"/>
      <point x="359" y="588" type="line"/>
      <point x="415" y="532"/>
      <point x="452" y="455"/>
      <point x="464" y="363" type="curve"/>
      <point x="431" y="431"/>
      <point x="361" y="477"/>
      <point x="277" y="476" type="curve" smooth="yes"/>
      <point x="149" y="477"/>
      <point x="53" y="375"/>
      <point x="53" y="238" type="curve" smooth="yes"/>
      <point x="53" y="99"/>
      <point x="157" y="-10"/>
      <point x="289" y="-10" type="curve" smooth="yes"/>
      <point x="436" y="-10"/>
      <point x="534" y="109"/>
      <point x="534" y="289" type="curve"/>
      <point x="534" y="430"/>
      <point x="492" y="544"/>
      <point x="413" y="624" type="curve"/>
      <point x="503" y="683" type="line"/>
      <point x="476" y="725" type="line"/>
      <point x="374" y="658" type="line"/>
      <point x="337" y="687"/>
      <point x="293" y="709"/>
      <point x="244" y="725" type="curve"/>
      <point x="214" y="673" type="line"/>
      <point x="253" y="661"/>
      <point x="288" y="644"/>
      <point x="318" y="622" type="curve"/>
      <point x="233" y="567" type="line"/>
    </contour>
    <contour>
      <point x="291" y="54" type="curve" smooth="yes"/>
      <point x="197" y="54"/>
      <point x="124" y="133"/>
      <point x="124" y="236" type="curve" smooth="yes"/>
      <point x="124" y="339"/>
      <point x="196" y="418"/>
      <point x="291" y="418" type="curve" smooth="yes"/>
      <point x="385" y="418"/>
      <point x="458" y="338"/>
      <point x="458" y="236" type="curve" smooth="yes"/>
      <point x="458" y="134"/>
      <point x="385" y="54"/>
    </contour>
  </outline>
</glyph>
<glyph name="divide" format="2">
  <advance width="530"/>
  <unicode hex="00F7"/>
  <outline>
    <contour>
      <point x="265" y="492" type="curve" smooth="yes"/>
      <point x="293" y="492"/>
      <point x="317" y="515"/>
      <point x="317" y="545" type="curve" smooth="yes"/>
      <point x="317" y="574"/>
      <point x="293" y="598"/>
      <point x="265" y="598" type="curve" smooth="yes"/>
      <point x="236" y="598"/>
      <point x="212" y="574"/>
      <point x="212" y="545" type="curve" smooth="yes"/>
      <point x="212" y="515"/>
      <point x="236" y="492"/>
    </contour>
    <contour>
      <point x="67" y="327" type="line"/>
      <point x="462" y="327" type="line"/>
      <point x="462" y="389" type="line"/>
      <point x="67" y="389" type="line"/>
    </contour>
    <contour>
      <point x="265" y="120" type="curve" smooth="yes"/>
      <point x="293" y="120"/>
      <point x="317" y="144"/>
      <point x="317" y="173" type="curve" smooth="yes"/>
      <point x="317" y="203"/>
      <point x="293" y="226"/>
      <point x="265" y="226" type="curve" smooth="yes"/>
      <point x="236" y="226"/>
      <point x="212" y="203"/>
      <point x="212" y="173" type="curve" smooth="yes"/>
      <point x="212" y="144"/>
      <point x="236" y="120"/>
    </contour>
  </outline>
</glyph>
<glyph name="aogonek" format="2">
  <advance width="526"/>
  <unicode hex="0105"/>
  <outline>
    <contour>
      <point x="226" y="-9" type="curve" smooth="yes"/>
      <point x="286" y="-9"/>
      <point x="338" y="13"/>
      <point x="381" y="57" type="curve"/>
      <point x="381" y="0" type="line"/>
      <point x="397" y="0" type="line"/>
      <point x="327" y="-50"/>
      <point x="298" y="-91"/>
      <point x="298" y="-140" type="curve"/>
      <point x="298" y="-195"/>
      <point x="340" y="-231"/>
      <point x="404" y="-231" type="curve"/>
      <point x="431" y="-231"/>
      <point x="458" y="-224"/>
      <point x="477" y="-212" type="curve"/>
      <point x="463" y="-173" type="line"/>
      <point x="451" y="-181"/>
      <point x="432" y="-185"/>
      <point x="415" y="-185" type="curve"/>
      <point x="373" y="-185"/>
      <point x="348" y="-164"/>
      <point x="348" y="-128" type="curve"/>
      <point x="348" y="-87"/>
      <point x="380" y="-47"/>
      <point x="452" y="0" type="curve"/>
      <point x="453" y="0" type="line"/>
      <point x="453" y="324" type="line" smooth="yes"/>
      <point x="453" y="435"/>
      <point x="385" y="496"/>
      <point x="264" y="496" type="curve" smooth="yes"/>
      <point x="205" y="496"/>
      <point x="147" y="481"/>
      <point x="80" y="449" type="curve"/>
      <point x="107" y="393" type="line"/>
      <point x="164" y="422"/>
      <point x="210" y="435"/>
      <point x="255" y="435" type="curve" smooth="yes"/>
      <point x="338" y="435"/>
      <point x="381" y="394"/>
      <point x="381" y="314" type="curve" smooth="yes"/>
      <point x="381" y="247" type="line"/>
      <point x="338" y="273"/>
      <point x="288" y="285"/>
      <point x="232" y="285" type="curve" smooth="yes"/>
      <point x="122" y="285"/>
      <point x="49" y="227"/>
      <point x="49" y="140" type="curve" smooth="yes"/>
      <point x="49" y="52"/>
      <point x="122" y="-9"/>
    </contour>
    <contour>
      <point x="119" y="142" type="curve" smooth="yes"/>
      <point x="119" y="196"/>
      <point x="168" y="232"/>
      <point x="243" y="232" type="curve" smooth="yes"/>
      <point x="298" y="232"/>
      <point x="340" y="221"/>
      <point x="381" y="197" type="curve"/>
      <point x="381" y="103" type="line"/>
      <point x="341" y="65"/>
      <point x="296" y="47"/>
      <point x="241" y="47" type="curve"/>
      <point x="168" y="47"/>
      <point x="119" y="85"/>
    </contour>
  </outline>
</glyph>
<glyph name="Eogonek" format="2">
  <advance width="619"/>
  <unicode hex="0118"/>
  <outline>
    <contour>
      <point x="89" y="0" type="line"/>
      <point x="514" y="0" type="line"/>
      <point x="444" y="-50"/>
      <point x="415" y="-91"/>
      <point x="415" y="-140" type="curve"/>
      <point x="415" y="-195"/>
      <point x="457" y="-231"/>
      <point x="521" y="-231" type="curve"/>
      <point x="548" y="-231"/>
      <point x="575" y="-224"/>
      <point x="594" y="-212" type="curve"/>
      <point x="580" y="-173" type="line"/>
      <point x="568" y="-181"/>
      <point x="549" y="-185"/>
      <point x="532" y="-185" type="curve"/>
      <point x="490" y="-185"/>
      <point x="465" y="-164"/>
      <point x="465" y="-128" type="curve"/>
      <point x="465" y="-87"/>
      <point x="497" y="-47"/>
      <point x="569" y="0" type="curve"/>
      <point x="571" y="0" type="line"/>
      <point x="571" y="67" type="line"/>
      <point x="166" y="67" type="line"/>
      <point x="166" y="320" type="line"/>
      <point x="444" y="320" type="line"/>
      <point x="444" y="387" type="line"/>
      <point x="166" y="387" type="line"/>
      <point x="166" y="633" type="line"/>
      <point x="567" y="633" type="line"/>
      <point x="567" y="700" type="line"/>
      <point x="89" y="700" type="line"/>
    </contour>
  </outline>
</glyph>
<glyph name="eogonek" format="2">
  <advance width="557"/>
  <unicode hex="0119"/>
  <outline>
    <contour>
      <point x="478" y="56" type="curve"/>
      <point x="432" y="105" type="line"/>
      <point x="399" y="74"/>
      <point x="349" y="55"/>
      <point x="298" y="55" type="curve"/>
      <point x="205" y="55"/>
      <point x="131" y="129"/>
      <point x="124" y="228" type="curve"/>
      <point x="507" y="228" type="line"/>
      <point x="507" y="250" type="line"/>
      <point x="507" y="390"/>
      <point x="411" y="496"/>
      <point x="283" y="496" type="curve"/>
      <point x="153" y="496"/>
      <point x="53" y="387"/>
      <point x="53" y="244" type="curve" smooth="yes"/>
      <point x="53" y="101"/>
      <point x="158" y="-9"/>
      <point x="295" y="-9" type="curve"/>
      <point x="297" y="-9" type="line"/>
      <point x="235" y="-55"/>
      <point x="210" y="-94"/>
      <point x="210" y="-140" type="curve"/>
      <point x="210" y="-195"/>
      <point x="252" y="-231"/>
      <point x="316" y="-231" type="curve"/>
      <point x="343" y="-231"/>
      <point x="370" y="-224"/>
      <point x="389" y="-212" type="curve"/>
      <point x="375" y="-173" type="line"/>
      <point x="363" y="-181"/>
      <point x="344" y="-185"/>
      <point x="327" y="-185" type="curve"/>
      <point x="285" y="-185"/>
      <point x="260" y="-164"/>
      <point x="260" y="-128" type="curve"/>
      <point x="260" y="-87"/>
      <point x="291" y="-48"/>
      <point x="362" y="-2" type="curve"/>
      <point x="403" y="8"/>
      <point x="441" y="27"/>
    </contour>
    <contour>
      <point x="282" y="433" type="curve"/>
      <point x="362" y="433"/>
      <point x="424" y="368"/>
      <point x="435" y="280" type="curve"/>
      <point x="126" y="280" type="line"/>
      <point x="139" y="370"/>
      <point x="201" y="433"/>
    </contour>
  </outline>
</glyph>
<glyph name="hcircumflex" format="2">
  <advance width="552"/>
  <unicode hex="0125"/>
  <outline>
    <contour>
      <point x="202" y="791" type="line"/>
      <point x="262" y="791" type="line"/>
      <point x="148" y="918" type="line"/>
      <point x="70" y="918" type="line"/>
      <point x="-44" y="791" type="line"/>
      <point x="15" y="791" type="line"/>
      <point x="108" y="879" type="line"/>
    </contour>
    <contour>
      <point x="75" y="0" type="line"/>
      <point x="148" y="0" type="line"/>
      <point x="148" y="360" type="line"/>
      <point x="177" y="409"/>
      <point x="222" y="435"/>
      <point x="276" y="435" type="curve" smooth="yes"/>
      <point x="357" y="435"/>
      <point x="407" y="380"/>
      <point x="407" y="295" type="curve"/>
      <point x="407" y="0" type="line"/>
      <point x="480" y="0" type="line"/>
      <point x="480" y="316" type="line" smooth="yes"/>
      <point x="480" y="422"/>
      <point x="408" y="496"/>
      <point x="303" y="496" type="curve"/>
      <point x="236" y="496"/>
      <point x="184" y="465"/>
      <point x="148" y="409" type="curve"/>
      <point x="148" y="714" type="line"/>
      <point x="75" y="714" type="line"/>
    </contour>
  </outline>
</glyph>
<glyph name="Iogonek" format="2">
  <advance width="252"/>
  <unicode hex="012E"/>
  <outline>
    <contour>
      <point x="87" y="0" type="line"/>
      <point x="109" y="0" type="line"/>
      <point x="39" y="-50"/>
      <point x="10" y="-91"/>
      <point x="10" y="-140" type="curve"/>
      <point x="10" y="-195"/>
      <point x="52" y="-231"/>
      <point x="116" y="-231" type="curve"/>
      <point x="143" y="-231"/>
      <point x="170" y="-224"/>
      <point x="189" y="-212" type="curve"/>
      <point x="175" y="-173" type="line"/>
      <point x="163" y="-181"/>
      <point x="144" y="-185"/>
      <point x="127" y="-185" type="curve"/>
      <point x="85" y="-185"/>
      <point x="60" y="-164"/>
      <point x="60" y="-128" type="curve"/>
      <point x="60" y="-87"/>
      <point x="92" y="-47"/>
      <point x="164" y="0" type="curve"/>
      <point x="164" y="700" type="line"/>
      <point x="87" y="700" type="line"/>
    </contour>
  </outline>
</glyph>
<glyph name="iogonek" format="2">
  <advance width="223"/>
  <unicode hex="012F"/>
  <outline>
    <contour>
      <point x="112" y="608" type="curve" smooth="yes"/>
      <point x="141" y="608"/>
      <point x="164" y="631"/>
      <point x="164" y="661" type="curve" smooth="yes"/>
      <point x="164" y="689"/>
      <point x="140" y="713"/>
      <point x="112" y="713" type="curve" smooth="yes"/>
      <point x="83" y="713"/>
      <point x="59" y="689"/>
      <point x="59" y="661" type="curve" smooth="yes"/>
      <point x="59" y="631"/>
      <point x="82" y="608"/>
    </contour>
    <contour>
      <point x="148" y="0" type="curve"/>
      <point x="148" y="488" type="line"/>
      <point x="75" y="488" type="line"/>
      <point x="75" y="0" type="line"/>
      <point x="93" y="0" type="line"/>
      <point x="23" y="-50"/>
      <point x="-6" y="-91"/>
      <point x="-6" y="-140" type="curve"/>
      <point x="-6" y="-195"/>
      <point x="36" y="-231"/>
      <point x="100" y="-231" type="curve"/>
      <point x="127" y="-231"/>
      <point x="154" y="-224"/>
      <point x="173" y="-212" type="curve"/>
      <point x="159" y="-173" type="line"/>
      <point x="147" y="-181"/>
      <point x="128" y="-185"/>
      <point x="111" y="-185" type="curve"/>
      <point x="69" y="-185"/>
      <point x="44" y="-164"/>
      <point x="44" y="-128" type="curve"/>
      <point x="44" y="-87"/>
      <point x="76" y="-47"/>
    </contour>
  </outline>
</glyph>
<glyph name="lacute" format="2">
  <advance width="223"/>
  <unicode hex="013A"/>
  <outline>
    <contour>
      <point x="175" y="917" type="line"/>
      <point x="63" y="795" type="line"/>
      <point x="130" y="795" type="line"/>
      <point x="274" y="917" type="line"/>
    </contour>
    <contour>
      <point x="75" y="0" type="line"/>
      <point x="148" y="0" type="line"/>
      <point x="148" y="714" type="line"/>
      <point x="75" y="714" type="line"/>
    </contour>
  </outline>
</glyph>
<glyph name="Eng" format="2">
  <advance width="739"/>
  <unicode hex="014A"/>
  <outline>
    <contour>
      <point x="579" y="1" type="line"/>
      <point x="579" y="-76" type="line"/>
      <point x="579" y="-124"/>
      <point x="561" y="-144"/>
      <point x="518" y="-144" type="curve"/>
      <point x="503" y="-144"/>
      <point x="493" y="-143"/>
      <point x="482" y="-140" type="curve"/>
      <point x="482" y="-202" type="line"/>
      <point x="495" y="-205"/>
      <point x="511" y="-208"/>
      <point x="527" y="-208" type="curve"/>
      <point x="607" y="-208"/>
      <point x="650" y="-162"/>
      <point x="650" y="-83" type="curve"/>
      <point x="650" y="700" type="line"/>
      <point x="577" y="700" type="line"/>
      <point x="578" y="123" type="line"/>
      <point x="169" y="700" type="line"/>
      <point x="89" y="700" type="line"/>
      <point x="89" y="0" type="line"/>
      <point x="162" y="0" type="line"/>
      <point x="161" y="590" type="line"/>
    </contour>
  </outline>
</glyph>
<glyph name="oe" format="2">
  <advance width="962"/>
  <unicode hex="0153"/>
  <outline>
    <contour>
      <point x="53" y="244" type="curve" smooth="yes"/>
      <point x="53" y="100"/>
      <point x="156" y="-10"/>
      <point x="290" y="-10" type="curve" smooth="yes"/>
      <point x="378" y="-10"/>
      <point x="453" y="38"/>
      <point x="493" y="113" type="curve"/>
      <point x="534" y="39"/>
      <point x="611" y="-9"/>
      <point x="700" y="-9" type="curve"/>
      <point x="769" y="-9"/>
      <point x="827" y="12"/>
      <point x="883" y="56" type="curve"/>
      <point x="837" y="105" type="line"/>
      <point x="804" y="74"/>
      <point x="754" y="55"/>
      <point x="703" y="55" type="curve"/>
      <point x="610" y="55"/>
      <point x="536" y="129"/>
      <point x="529" y="228" type="curve"/>
      <point x="912" y="228" type="line"/>
      <point x="912" y="250" type="line"/>
      <point x="912" y="390"/>
      <point x="816" y="496"/>
      <point x="689" y="496" type="curve"/>
      <point x="604" y="496"/>
      <point x="532" y="449"/>
      <point x="492" y="376" type="curve"/>
      <point x="452" y="449"/>
      <point x="378" y="496"/>
      <point x="290" y="496" type="curve" smooth="yes"/>
      <point x="155" y="496"/>
      <point x="53" y="388"/>
    </contour>
    <contour>
      <point x="688" y="433" type="curve"/>
      <point x="767" y="433"/>
      <point x="829" y="368"/>
      <point x="840" y="280" type="curve"/>
      <point x="531" y="280" type="line"/>
      <point x="544" y="370"/>
      <point x="606" y="433"/>
    </contour>
    <contour>
      <point x="290" y="55" type="curve" smooth="yes"/>
      <point x="195" y="55"/>
      <point x="125" y="134"/>
      <point x="125" y="243" type="curve" smooth="yes"/>
      <point x="125" y="351"/>
      <point x="195" y="432"/>
      <point x="290" y="432" type="curve" smooth="yes"/>
      <point x="385" y="432"/>
      <point x="456" y="351"/>
      <point x="456" y="243" type="curve" smooth="yes"/>
      <point x="456" y="135"/>
      <point x="385" y="55"/>
    </contour>
  </outline>
</glyph>
<glyph name="Scedilla" format="2">
  <advance width="623"/>
  <unicode hex="015E"/>
  <outline>
    <contour>
      <point x="28" y="109" type="line"/>
      <point x="102" y="40"/>
      <point x="181" y="1"/>
      <point x="272" y="-8" type="curve"/>
      <point x="249" y="-97" type="line"/>
      <point x="278" y="-97" type="line" smooth="yes"/>
      <point x="323" y="-97"/>
      <point x="349" y="-115"/>
      <point x="349" y="-146" type="curve"/>
      <point x="349" y="-178"/>
      <point x="325" y="-198"/>
      <point x="284" y="-198" type="curve"/>
      <point x="255" y="-198"/>
      <point x="228" y="-188"/>
      <point x="205" y="-169" type="curve"/>
      <point x="177" y="-201" type="line"/>
      <point x="204" y="-225"/>
      <point x="242" y="-237"/>
      <point x="287" y="-237" type="curve"/>
      <point x="352" y="-237"/>
      <point x="398" y="-198"/>
      <point x="398" y="-144" type="curve"/>
      <point x="398" y="-97"/>
      <point x="360" y="-67"/>
      <point x="301" y="-64" type="curve"/>
      <point x="313" y="-10" type="line"/>
      <point x="315" y="-10" type="line" smooth="yes"/>
      <point x="469" y="-10"/>
      <point x="581" y="80"/>
      <point x="581" y="201" type="curve"/>
      <point x="581" y="306"/>
      <point x="517" y="362"/>
      <point x="368" y="389" type="curve" smooth="yes"/>
      <point x="256" y="408" type="line" smooth="yes"/>
      <point x="162" y="423"/>
      <point x="124" y="455"/>
      <point x="124" y="517" type="curve"/>
      <point x="124" y="590"/>
      <point x="193" y="644"/>
      <point x="291" y="644" type="curve"/>
      <point x="373" y="644"/>
      <point x="455" y="614"/>
      <point x="527" y="560" type="curve"/>
      <point x="567" y="620" type="line"/>
      <point x="480" y="681"/>
      <point x="394" y="709"/>
      <point x="290" y="709" type="curve" smooth="yes"/>
      <point x="148" y="709"/>
      <point x="50" y="627"/>
      <point x="50" y="509" type="curve"/>
      <point x="50" y="415"/>
      <point x="107" y="362"/>
      <point x="235" y="339" type="curve" smooth="yes"/>
      <point x="348" y="320" type="line" smooth="yes"/>
      <point x="462" y="300"/>
      <point x="504" y="267"/>
      <point x="504" y="197" type="curve"/>
      <point x="504" y="116"/>
      <point x="425" y="56"/>
      <point x="317" y="56" type="curve"/>
      <point x="226" y="56"/>
      <point x="159" y="86"/>
      <point x="75" y="165" type="curve"/>
    </contour>
  </outline>
</glyph>
<glyph name="scedilla" format="2">
  <advance width="452"/>
  <unicode hex="015F"/>
  <outline>
    <contour>
      <point x="28" y="63" type="line"/>
      <point x="71" y="21"/>
      <point x="132" y="-4"/>
      <point x="202" y="-8" type="curve"/>
      <point x="179" y="-99" type="line"/>
      <point x="208" y="-99" type="line" smooth="yes"/>
      <point x="253" y="-99"/>
      <point x="279" y="-117"/>
      <point x="279" y="-148" type="curve"/>
      <point x="279" y="-180"/>
      <point x="255" y="-200"/>
      <point x="214" y="-200" type="curve"/>
      <point x="185" y="-200"/>
      <point x="158" y="-190"/>
      <point x="135" y="-171" type="curve"/>
      <point x="107" y="-203" type="line"/>
      <point x="134" y="-227"/>
      <point x="172" y="-239"/>
      <point x="217" y="-239" type="curve"/>
      <point x="282" y="-239"/>
      <point x="328" y="-200"/>
      <point x="328" y="-146" type="curve"/>
      <point x="328" y="-99"/>
      <point x="290" y="-69"/>
      <point x="231" y="-66" type="curve"/>
      <point x="244" y="-8" type="line"/>
      <point x="343" y="-1"/>
      <point x="416" y="62"/>
      <point x="416" y="142" type="curve" smooth="yes"/>
      <point x="416" y="214"/>
      <point x="372" y="255"/>
      <point x="274" y="273" type="curve" smooth="yes"/>
      <point x="192" y="288" type="line" smooth="yes"/>
      <point x="129" y="299"/>
      <point x="108" y="318"/>
      <point x="108" y="358" type="curve"/>
      <point x="108" y="406"/>
      <point x="150" y="436"/>
      <point x="214" y="436" type="curve"/>
      <point x="266" y="436"/>
      <point x="316" y="420"/>
      <point x="367" y="384" type="curve"/>
      <point x="403" y="435" type="line"/>
      <point x="341" y="477"/>
      <point x="284" y="496"/>
      <point x="217" y="496" type="curve"/>
      <point x="114" y="496"/>
      <point x="41" y="437"/>
      <point x="41" y="353" type="curve" smooth="yes"/>
      <point x="41" y="282"/>
      <point x="84" y="242"/>
      <point x="179" y="225" type="curve" smooth="yes"/>
      <point x="259" y="211" type="line" smooth="yes"/>
      <point x="321" y="199"/>
      <point x="347" y="178"/>
      <point x="347" y="138" type="curve" smooth="yes"/>
      <point x="347" y="87"/>
      <point x="295" y="50"/>
      <point x="224" y="50" type="curve" smooth="yes"/>
      <point x="172" y="50"/>
      <point x="125" y="68"/>
      <point x="67" y="111" type="curve"/>
    </contour>
  </outline>
</glyph>
<glyph name="Tcedilla" format="2">
  <advance width="617"/>
  <unicode hex="0162"/>
  <outline>
    <contour>
      <point x="412" y="-146" type="curve"/>
      <point x="412" y="-99"/>
      <point x="374" y="-69"/>
      <point x="315" y="-66" type="curve"/>
      <point x="330" y="0" type="line"/>
      <point x="347" y="0" type="line"/>
      <point x="347" y="632" type="line"/>
      <point x="588" y="632" type="line"/>
      <point x="588" y="700" type="line"/>
      <point x="28" y="700" type="line"/>
      <point x="28" y="632" type="line"/>
      <point x="270" y="632" type="line"/>
      <point x="270" y="0" type="line"/>
      <point x="288" y="0" type="line"/>
      <point x="263" y="-99" type="line"/>
      <point x="292" y="-99" type="line" smooth="yes"/>
      <point x="337" y="-99"/>
      <point x="363" y="-117"/>
      <point x="363" y="-148" type="curve"/>
      <point x="363" y="-180"/>
      <point x="339" y="-200"/>
      <point x="298" y="-200" type="curve"/>
      <point x="269" y="-200"/>
      <point x="242" y="-190"/>
      <point x="219" y="-171" type="curve"/>
      <point x="191" y="-203" type="line"/>
      <point x="218" y="-227"/>
      <point x="256" y="-239"/>
      <point x="301" y="-239" type="curve"/>
      <point x="366" y="-239"/>
      <point x="412" y="-200"/>
    </contour>
  </outline>
</glyph>
<glyph name="tcedilla" format="2">
  <advance width="378"/>
  <unicode hex="0163"/>
  <outline>
    <contour>
      <point x="133" y="110" type="line"/>
      <point x="133" y="48"/>
      <point x="161" y="10"/>
      <point x="214" y="-4" type="curve"/>
      <point x="190" y="-99" type="line"/>
      <point x="219" y="-99" type="line" smooth="yes"/>
      <point x="264" y="-99"/>
      <point x="290" y="-117"/>
      <point x="290" y="-148" type="curve"/>
      <point x="290" y="-180"/>
      <point x="266" y="-200"/>
      <point x="225" y="-200" type="curve"/>
      <point x="196" y="-200"/>
      <point x="169" y="-190"/>
      <point x="146" y="-171" type="curve"/>
      <point x="118" y="-203" type="line"/>
      <point x="145" y="-227"/>
      <point x="183" y="-239"/>
      <point x="228" y="-239" type="curve"/>
      <point x="293" y="-239"/>
      <point x="339" y="-200"/>
      <point x="339" y="-146" type="curve"/>
      <point x="339" y="-99"/>
      <point x="301" y="-69"/>
      <point x="242" y="-66" type="curve"/>
      <point x="255" y="-9" type="line"/>
      <point x="261" y="-9" type="line"/>
      <point x="289" y="-9"/>
      <point x="319" y="-5"/>
      <point x="346" y="4" type="curve"/>
      <point x="346" y="69" type="line"/>
      <point x="319" y="59"/>
      <point x="302" y="56"/>
      <point x="277" y="56" type="curve"/>
      <point x="226" y="56"/>
      <point x="206" y="77"/>
      <point x="206" y="129" type="curve" smooth="yes"/>
      <point x="206" y="428" type="line"/>
      <point x="346" y="428" type="line"/>
      <point x="346" y="488" type="line"/>
      <point x="206" y="488" type="line"/>
      <point x="206" y="639" type="line"/>
      <point x="133" y="622" type="line"/>
      <point x="133" y="488" type="line"/>
      <point x="32" y="488" type="line"/>
      <point x="32" y="428" type="line"/>
      <point x="133" y="428" type="line"/>
    </contour>
  </outline>
</glyph>
<glyph name="tcaron" format="2">
  <advance width="378"/>
  <unicode hex="0165"/>
  <outline>
    <contour>
      <point x="298" y="769" type="line"/>
      <point x="293" y="588" type="line"/>
      <point x="351" y="588" type="line"/>
      <point x="376" y="784" type="line"/>
    </contour>
    <contour>
      <point x="133" y="110" type="line"/>
      <point x="133" y="32"/>
      <point x="177" y="-9"/>
      <point x="261" y="-9" type="curve"/>
      <point x="289" y="-9"/>
      <point x="319" y="-5"/>
      <point x="346" y="4" type="curve"/>
      <point x="346" y="69" type="line"/>
      <point x="319" y="59"/>
      <point x="302" y="56"/>
      <point x="277" y="56" type="curve"/>
      <point x="226" y="56"/>
      <point x="206" y="77"/>
      <point x="206" y="129" type="curve" smooth="yes"/>
      <point x="206" y="428" type="line"/>
      <point x="346" y="428" type="line"/>
      <point x="346" y="488" type="line"/>
      <point x="206" y="488" type="line"/>
      <point x="206" y="639" type="line"/>
      <point x="133" y="622" type="line"/>
      <point x="133" y="488" type="line"/>
      <point x="32" y="488" type="line"/>
      <point x="32" y="428" type="line"/>
      <point x="133" y="428" type="line"/>
    </contour>
  </outline>
</glyph>
<glyph name="Tbar" format="2">
  <advance width="617"/>
  <unicode hex="0166"/>
  <outline>
    <contour>
      <point x="116" y="369" type="line"/>
      <point x="116" y="308" type="line"/>
      <point x="270" y="308" type="line"/>
      <point x="270" y="0" type="line"/>
      <point x="347" y="0" type="line"/>
      <point x="347" y="308" type="line"/>
      <point x="500" y="308" type="line"/>
      <point x="500" y="369" type="line"/>
      <point x="347" y="369" type="line"/>
      <point x="347" y="632" type="line"/>
      <point x="588" y="632" type="line"/>
      <point x="588" y="700" type="line"/>
      <point x="28" y="700" type="line"/>
      <point x="28" y="632" type="line"/>
      <point x="270" y="632" type="line"/>
      <point x="270" y="369" type="line"/>
    </contour>
  </outline>
</glyph>
<glyph name="Uogonek" format="2">
  <advance width="712"/>
  <unicode hex="0172"/>
  <outline>
    <contour>
      <point x="637" y="296" type="curve"/>
      <point x="637" y="700" type="line"/>
      <point x="560" y="700" type="line"/>
      <point x="560" y="296" type="line"/>
      <point x="560" y="152"/>
      <point x="480" y="59"/>
      <point x="356" y="59" type="curve" smooth="yes"/>
      <point x="232" y="59"/>
      <point x="152" y="152"/>
      <point x="152" y="296" type="curve"/>
      <point x="152" y="700" type="line"/>
      <point x="75" y="700" type="line"/>
      <point x="75" y="296" type="line"/>
      <point x="75" y="107"/>
      <point x="183" y="-11"/>
      <point x="356" y="-11" type="curve" smooth="yes"/>
      <point x="357" y="-11" type="line"/>
      <point x="298" y="-56"/>
      <point x="273" y="-95"/>
      <point x="273" y="-140" type="curve"/>
      <point x="273" y="-195"/>
      <point x="315" y="-231"/>
      <point x="379" y="-231" type="curve"/>
      <point x="406" y="-231"/>
      <point x="433" y="-224"/>
      <point x="452" y="-212" type="curve"/>
      <point x="438" y="-173" type="line"/>
      <point x="426" y="-181"/>
      <point x="407" y="-185"/>
      <point x="390" y="-185" type="curve"/>
      <point x="348" y="-185"/>
      <point x="323" y="-164"/>
      <point x="323" y="-128" type="curve"/>
      <point x="323" y="-89"/>
      <point x="353" y="-50"/>
      <point x="419" y="-5" type="curve"/>
      <point x="554" y="21"/>
      <point x="637" y="132"/>
    </contour>
  </outline>
</glyph>
<glyph name="dotlessj" format="2">
  <advance width="223"/>
  <unicode hex="0237"/>
  <anchor x="112" y="488" name="top"/>
  <outline>
    <contour>
      <point x="-20" y="-207" type="line"/>
      <point x="-7" y="-210"/>
      <point x="9" y="-213"/>
      <point x="25" y="-213" type="curve"/>
      <point x="104" y="-213"/>
      <point x="148" y="-167"/>
      <point x="148" y="-88" type="curve" smooth="yes"/>
      <point x="148" y="488" type="line"/>
      <point x="75" y="488" type="line"/>
      <point x="75" y="-84" type="line" smooth="yes"/>
      <point x="75" y="-129"/>
      <point x="58" y="-148"/>
      <point x="16" y="-148" type="curve"/>
      <point x="2" y="-148"/>
      <point x="-8" y="-147"/>
      <point x="-20" y="-144" type="curve"/>
    </contour>
  </outline>
</glyph>
<glyph name="circumflex" format="2">
  <advance width="523"/>
  <unicode hex="02C6"/>
  <anchor x="262" y="488" name="_top"/>
  <outline>
    <contour>
      <point x="355" y="579" type="line"/>
      <point x="415" y="579" type="line"/>
      <point x="301" y="706" type="line"/>
      <point x="223" y="706" type="line"/>
      <point x="109" y="579" type="line"/>
      <point x="168" y="579" type="line"/>
      <point x="261" y="667" type="line"/>
    </contour>
  </outline>
</glyph>
<glyph name="caron" format="2">
  <advance width="523"/>
  <unicode hex="02C7"/>
  <anchor x="262" y="488" name="_top"/>
  <outline>
    <contour>
      <point x="170" y="710" type="line"/>
      <point x="109" y="710" type="line"/>
      <point x="223" y="583" type="line"/>
      <point x="301" y="583" type="line"/>
      <point x="415" y="710" type="line"/>
      <point x="354" y="710" type="line"/>
      <point x="262" y="622" type="line"/>
    </contour>
  </outline>
</glyph>
<glyph name="ring" format="2">
  <advance width="523"/>
  <unicode hex="02DA"/>
  <anchor x="262" y="488" name="_top"/>
  <outline>
    <contour>
      <point x="262" y="572" type="curve" smooth="yes"/>
      <point x="324" y="572"/>
      <point x="374" y="621"/>
      <point x="374" y="684" type="curve" smooth="yes"/>
      <point x="374" y="745"/>
      <point x="324" y="794"/>
      <point x="262" y="794" type="curve" smooth="yes"/>
      <point x="199" y="794"/>
      <point x="150" y="745"/>
      <point x="150" y="684" type="curve" smooth="yes"/>
      <point x="150" y="621"/>
      <point x="199" y="572"/>
    </contour>
    <contour>
      <point x="262" y="612" type="curve" smooth="yes"/>
      <point x="222" y="612"/>
      <point x="192" y="643"/>
      <point x="192" y="684" type="curve"/>
      <point x="192" y="723"/>
      <point x="222" y="753"/>
      <point x="262" y="753" type="curve" smooth="yes"/>
      <point x="300" y="753"/>
      <point x="331" y="723"/>
      <point x="331" y="684" type="curve" smooth="yes"/>
      <point x="331" y="643"/>
      <point x="301" y="612"/>
    </contour>
  </outline>
</glyph>
<glyph name="ogonek" format="2">
  <advance width="523"/>
  <unicode hex="02DB"/>
  <anchor x="317" y="0" name="_bottom"/>
  <outline>
    <contour>
      <point x="317" y="0" type="curve"/>
      <point x="285" y="16" type="line"/>
      <point x="198" y="-42"/>
      <point x="163" y="-86"/>
      <point x="163" y="-140" type="curve"/>
      <point x="163" y="-195"/>
      <point x="205" y="-231"/>
      <point x="269" y="-231" type="curve"/>
      <point x="296" y="-231"/>
      <point x="323" y="-224"/>
      <point x="342" y="-212" type="curve"/>
      <point x="328" y="-173" type="line"/>
      <point x="316" y="-181"/>
      <point x="297" y="-185"/>
      <point x="280" y="-185" type="curve"/>
      <point x="238" y="-185"/>
      <point x="213" y="-164"/>
      <point x="213" y="-128" type="curve"/>
      <point x="213" y="-87"/>
      <point x="245" y="-47"/>
    </contour>
  </outline>
</glyph>
<glyph name="daggerdbl" format="2">
  <advance width="434"/>
  <unicode hex="2021"/>
  <outline>
    <contour>
      <point x="186" y="0" type="line"/>
      <point x="250" y="0" type="line"/>
      <point x="250" y="200" type="line"/>
      <point x="384" y="200" type="line"/>
      <point x="384" y="257" type="line"/>
      <point x="250" y="257" type="line"/>
      <point x="250" y="443" type="line"/>
      <point x="384" y="443" type="line"/>
      <point x="384" y="500" type="line"/>
      <point x="250" y="500" type="line"/>
      <point x="250" y="700" type="line"/>
      <point x="186" y="700" type="line"/>
      <point x="186" y="500" type="line"/>
      <point x="51" y="500" type="line"/>
      <point x="51" y="443" type="line"/>
      <point x="186" y="443" type="line"/>
      <point x="186" y="257" type="line"/>
      <point x="51" y="257" type="line"/>
      <point x="51" y="200" type="line"/>
      <point x="186" y="200" type="line"/>
    </contour>
  </outline>
</glyph>
<glyph name="uni2087" format="2">
  <advance width="298"/>
  <unicode hex="2087"/>
  <outline>
    <contour>
      <point x="57" y="0" type="line"/>
      <point x="117" y="0" type="line"/>
      <point x="286" y="311" type="line"/>
      <point x="286" y="350" type="line"/>
      <point x="17" y="350" type="line"/>
      <point x="17" y="305" type="line"/>
      <point x="229" y="305" type="line"/>
    </contour>
  </outline>
</glyph>
<glyph name="Euro" format="2">
  <advance width="729"/>
  <unicode hex="20AC"/>
  <outline>
    <contour>
      <point x="205" y="350" type="curve"/>
      <point x="205" y="365"/>
      <point x="206" y="379"/>
      <point x="207" y="393" type="curve"/>
      <point x="466" y="393" type="line"/>
      <point x="484" y="443" type="line"/>
      <point x="215" y="443" type="line"/>
      <point x="242" y="568"/>
      <point x="325" y="647"/>
      <point x="437" y="647" type="curve"/>
      <point x="511" y="647"/>
      <point x="573" y="612"/>
      <point x="619" y="545" type="curve"/>
      <point x="672" y="586" type="line"/>
      <point x="613" y="669"/>
      <point x="533" y="711"/>
      <point x="439" y="711" type="curve" smooth="yes"/>
      <point x="289" y="711"/>
      <point x="175" y="603"/>
      <point x="143" y="443" type="curve"/>
      <point x="44" y="443" type="line"/>
      <point x="44" y="393" type="line"/>
      <point x="136" y="393" type="line"/>
      <point x="135" y="379"/>
      <point x="134" y="365"/>
      <point x="134" y="350" type="curve"/>
      <point x="134" y="336"/>
      <point x="135" y="323"/>
      <point x="136" y="310" type="curve"/>
      <point x="44" y="310" type="line"/>
      <point x="44" y="259" type="line"/>
      <point x="142" y="259" type="line"/>
      <point x="173" y="97"/>
      <point x="287" y="-11"/>
      <point x="436" y="-11" type="curve" smooth="yes"/>
      <point x="528" y="-11"/>
      <point x="611" y="34"/>
      <point x="669" y="116" type="curve"/>
      <point x="619" y="156" type="line"/>
      <point x="574" y="91"/>
      <point x="508" y="54"/>
      <point x="435" y="54" type="curve" smooth="yes"/>
      <point x="323" y="54"/>
      <point x="241" y="134"/>
      <point x="214" y="259" type="curve"/>
      <point x="421" y="259" type="line"/>
      <point x="438" y="310" type="line"/>
      <point x="207" y="310" type="line"/>
      <point x="206" y="323"/>
      <point x="205" y="336"/>
    </contour>
  </outline>
</glyph>
<glyph name="minus" format="2">
  <advance width="530"/>
  <unicode hex="2212"/>
  <outline>
    <contour>
      <point x="462" y="389" type="line"/>
      <point x="67" y="389" type="line"/>
      <point x="67" y="327" type="line"/>
      <point x="462" y="327" type="line"/>
    </contour>
  </outline>
</glyph>
<glyph name="uni2215" format="2">
  <advance width="578"/>
  <unicode hex="2215"/>
  <outline>
    <contour>
      <point x="89" y="0" type="line"/>
      <point x="483" y="700" type="line"/>
      <point x="425" y="700" type="line"/>
      <point x="32" y="0" type="line"/>
    </contour>
  </outline>
</glyph>
<glyph name="notequal" format="2">
  <advance width="532"/>
  <unicode hex="2260"/>
  <outline>
    <contour>
      <point x="76" y="123" type="line"/>
      <point x="134" y="123" type="line"/>
      <point x="217" y="244" type="line"/>
      <point x="462" y="244" type="line"/>
      <point x="462" y="306" type="line"/>
      <point x="259" y="306" type="line"/>
      <point x="328" y="407" type="line"/>
      <point x="462" y="407" type="line"/>
      <point x="462" y="468" type="line"/>
      <point x="370" y="468" type="line"/>
      <point x="453" y="589" type="line"/>
      <point x="395" y="589" type="line"/>
      <point x="312" y="468" type="line"/>
      <point x="67" y="468" type="line"/>
      <point x="67" y="407" type="line"/>
      <point x="270" y="407" type="line"/>
      <point x="201" y="306" type="line"/>
      <point x="67" y="306" type="line"/>
      <point x="67" y="244" type="line"/>
      <point x="159" y="244" type="line"/>
    </contour>
  </outline>
</glyph>
<glyph name="caronSlovak" format="2">
  <advance width="467"/>
  <outline>
    <contour>
      <point x="205" y="714" type="line"/>
      <point x="200" y="504" type="line"/>
      <point x="256" y="504" type="line"/>
      <point x="281" y="714" type="line"/>
    </contour>
  </outline>
</glyph>
<glyph name="cordinal" format="2">
  <advance width="407"/>
  <outline>
    <contour>
      <point x="231" y="371" type="curve" smooth="yes"/>
      <point x="156" y="371"/>
      <point x="98" y="432"/>
      <point x="98" y="510" type="curve" smooth="yes"/>
      <point x="98" y="589"/>
      <point x="156" y="650"/>
      <point x="231" y="650" type="curve" smooth="yes"/>
      <point x="270" y="650"/>
      <point x="311" y="633"/>
      <point x="340" y="602" type="curve"/>
      <point x="379" y="646" type="line"/>
      <point x="340" y="684"/>
      <point x="285" y="706"/>
      <point x="229" y="706" type="curve"/>
      <point x="121" y="706"/>
      <point x="36" y="620"/>
      <point x="36" y="510" type="curve" smooth="yes"/>
      <point x="36" y="401"/>
      <point x="121" y="315"/>
      <point x="229" y="315" type="curve" smooth="yes"/>
      <point x="284" y="315"/>
      <point x="336" y="336"/>
      <point x="377" y="376" type="curve"/>
      <point x="339" y="418" type="line"/>
      <point x="307" y="386"/>
      <point x="270" y="371"/>
    </contour>
  </outline>
</glyph>
<glyph name="g.alt" format="2">
  <advance width="537"/>
  <anchor x="265" y="488" name="top"/>
  <outline>
    <contour>
      <point x="66" y="314" type="curve" smooth="yes"/>
      <point x="66" y="244"/>
      <point x="107" y="185"/>
      <point x="170" y="154" type="curve"/>
      <point x="117" y="140"/>
      <point x="82" y="105"/>
      <point x="82" y="67" type="curve"/>
      <point x="82" y="30"/>
      <point x="104" y="2"/>
      <point x="145" y="-12" type="curve"/>
      <point x="76" y="-33"/>
      <point x="40" y="-62"/>
      <point x="40" y="-100" type="curve"/>
      <point x="40" y="-175"/>
      <point x="121" y="-218"/>
      <point x="261" y="-218" type="curve" smooth="yes"/>
      <point x="421" y="-218"/>
      <point x="521" y="-159"/>
      <point x="521" y="-67" type="curve" smooth="yes"/>
      <point x="521" y="-6"/>
      <point x="475" y="30"/>
      <point x="393" y="34" type="curve" smooth="yes"/>
      <point x="207" y="44" type="line" smooth="yes"/>
      <point x="168" y="46"/>
      <point x="148" y="59"/>
      <point x="148" y="84" type="curve" smooth="yes"/>
      <point x="148" y="111"/>
      <point x="171" y="132"/>
      <point x="205" y="141" type="curve"/>
      <point x="224" y="136"/>
      <point x="244" y="133"/>
      <point x="265" y="133" type="curve" smooth="yes"/>
      <point x="379" y="133"/>
      <point x="466" y="212"/>
      <point x="466" y="314" type="curve" smooth="yes"/>
      <point x="466" y="354"/>
      <point x="452" y="391"/>
      <point x="428" y="421" type="curve"/>
      <point x="440" y="445"/>
      <point x="463" y="459"/>
      <point x="492" y="459" type="curve" smooth="yes"/>
      <point x="511" y="459"/>
      <point x="525" y="458"/>
      <point x="537" y="454" type="curve"/>
      <point x="537" y="525" type="line"/>
      <point x="528" y="526"/>
      <point x="521" y="527"/>
      <point x="512" y="527" type="curve" smooth="yes"/>
      <point x="460" y="527"/>
      <point x="421" y="494"/>
      <point x="412" y="439" type="curve"/>
      <point x="375" y="474"/>
      <point x="323" y="496"/>
      <point x="265" y="496" type="curve" smooth="yes"/>
      <point x="154" y="496"/>
      <point x="66" y="415"/>
    </contour>
    <contour>
      <point x="395" y="314" type="curve" smooth="yes"/>
      <point x="395" y="243"/>
      <point x="339" y="189"/>
      <point x="265" y="189" type="curve" smooth="yes"/>
      <point x="192" y="189"/>
      <point x="137" y="243"/>
      <point x="137" y="314" type="curve" smooth="yes"/>
      <point x="137" y="385"/>
      <point x="193" y="440"/>
      <point x="265" y="440" type="curve" smooth="yes"/>
      <point x="338" y="440"/>
      <point x="395" y="385"/>
    </contour>
    <contour>
      <point x="110" y="-88" type="curve"/>
      <point x="110" y="-59"/>
      <point x="137" y="-35"/>
      <point x="182" y="-21" type="curve"/>
      <point x="190" y="-22"/>
      <point x="198" y="-23"/>
      <point x="206" y="-23" type="curve" smooth="yes"/>
      <point x="385" y="-32" type="line" smooth="yes"/>
      <point x="427" y="-35"/>
      <point x="448" y="-49"/>
      <point x="448" y="-78" type="curve" smooth="yes"/>
      <point x="448" y="-131"/>
      <point x="373" y="-165"/>
      <point x="255" y="-165" type="curve" smooth="yes"/>
      <point x="164" y="-165"/>
      <point x="110" y="-136"/>
    </contour>
  </outline>
</glyph>
<glyph name="reversequotedblleft" format="2">
  <advance width="380"/>
  <outline>
    <contour>
      <point x="106" y="750" type="line"/>
      <point x="28" y="750" type="line"/>
      <point x="105" y="519" type="line"/>
      <point x="161" y="519" type="line"/>
    </contour>
    <contour>
      <point x="269" y="750" type="line"/>
      <point x="190" y="750" type="line"/>
      <point x="267" y="519" type="line"/>
      <point x="324" y="519" type="line"/>
    </contour>
  </outline>
</glyph>
